<mxfile host="app.diagrams.net" modified="2020-07-04T16:15:43.027Z" agent="5.0 (Windows NT 10.0; Win64; x64) AppleWebKit/537.36 (KHTML, like Gecko) Chrome/83.0.4103.116 Safari/537.36" etag="wlk9o4RWaRcA_UMNWjl8" version="13.1.5" type="github">
  <diagram id="XEtuF3hW05S3xv201d80" name="Page-1">
    <mxGraphModel dx="981" dy="526" grid="0" gridSize="10" guides="1" tooltips="1" connect="1" arrows="1" fold="1" page="1" pageScale="1" pageWidth="1169" pageHeight="827" math="0" shadow="0">
      <root>
        <mxCell id="0" />
        <mxCell id="1" parent="0" />
        <mxCell id="hgWlrX5DVt9wwpUrlXR_-1" value="" style="endArrow=classic;html=1;strokeWidth=2;" edge="1" parent="1">
          <mxGeometry width="50" height="50" relative="1" as="geometry">
            <mxPoint x="560" y="440.0000000000001" as="sourcePoint" />
            <mxPoint x="560" y="240" as="targetPoint" />
          </mxGeometry>
        </mxCell>
        <mxCell id="hgWlrX5DVt9wwpUrlXR_-2" value="" style="endArrow=classic;html=1;strokeWidth=2;" edge="1" parent="1">
          <mxGeometry width="50" height="50" relative="1" as="geometry">
            <mxPoint x="480" y="440.0000000000001" as="sourcePoint" />
            <mxPoint x="760" y="440.0000000000001" as="targetPoint" />
          </mxGeometry>
        </mxCell>
        <mxCell id="hgWlrX5DVt9wwpUrlXR_-4" value="&lt;font style=&quot;font-size: 15px&quot;&gt;h(t)&lt;/font&gt;" style="text;html=1;align=center;verticalAlign=middle;resizable=0;points=[];autosize=1;" vertex="1" parent="1">
          <mxGeometry x="540" y="220" width="40" height="20" as="geometry" />
        </mxCell>
        <mxCell id="hgWlrX5DVt9wwpUrlXR_-5" value="&lt;font style=&quot;font-size: 15px&quot;&gt;t&lt;/font&gt;" style="text;html=1;align=center;verticalAlign=middle;resizable=0;points=[];autosize=1;" vertex="1" parent="1">
          <mxGeometry x="760" y="430" width="20" height="20" as="geometry" />
        </mxCell>
        <mxCell id="hgWlrX5DVt9wwpUrlXR_-6" value="&lt;font style=&quot;font-size: 15px&quot;&gt;1&lt;/font&gt;" style="text;html=1;align=center;verticalAlign=middle;resizable=0;points=[];autosize=1;" vertex="1" parent="1">
          <mxGeometry x="535" y="310" width="20" height="20" as="geometry" />
        </mxCell>
        <mxCell id="hgWlrX5DVt9wwpUrlXR_-7" value="&lt;font style=&quot;font-size: 15px&quot;&gt;0&lt;/font&gt;" style="text;html=1;align=center;verticalAlign=middle;resizable=0;points=[];autosize=1;" vertex="1" parent="1">
          <mxGeometry x="540" y="440" width="20" height="20" as="geometry" />
        </mxCell>
        <mxCell id="hgWlrX5DVt9wwpUrlXR_-11" value="" style="endArrow=none;html=1;endFill=0;startArrow=oval;startFill=1;fillColor=#e51400;strokeColor=#B20000;strokeWidth=3;startSize=10;" edge="1" parent="1">
          <mxGeometry width="50" height="50" relative="1" as="geometry">
            <mxPoint x="560" y="320" as="sourcePoint" />
            <mxPoint x="720" y="320" as="targetPoint" />
          </mxGeometry>
        </mxCell>
        <mxCell id="hgWlrX5DVt9wwpUrlXR_-12" value="" style="endArrow=oval;html=1;strokeWidth=3;fillColor=#e51400;strokeColor=#B20000;endFill=0;targetPerimeterSpacing=0;endSize=10;" edge="1" parent="1">
          <mxGeometry width="50" height="50" relative="1" as="geometry">
            <mxPoint x="520" y="440" as="sourcePoint" />
            <mxPoint x="560" y="440" as="targetPoint" />
          </mxGeometry>
        </mxCell>
      </root>
    </mxGraphModel>
  </diagram>
</mxfile>
